<svg width="120" height="18" viewBox="0 0 120 18" fill="none" xmlns="http://www.w3.org/2000/svg">
<path d="M6.152 7.288C6.74933 7.39467 7.256 7.70933 7.672 8.232C8.088 8.75467 8.296 9.34667 8.296 10.008C8.296 10.5733 8.14667 11.0853 7.848 11.544C7.56 11.992 7.13867 12.3493 6.584 12.616C6.02933 12.872 5.384 13 4.648 13H0.2V1.88H4.44C5.19733 1.88 5.848 2.008 6.392 2.264C6.936 2.52 7.34667 2.86667 7.624 3.304C7.90133 3.73067 8.04 4.21067 8.04 4.744C8.04 5.384 7.86933 5.91733 7.528 6.344C7.18667 6.77067 6.728 7.08533 6.152 7.288ZM2.024 6.552H4.28C4.87733 6.552 5.34133 6.41867 5.672 6.152C6.01333 5.87467 6.184 5.48 6.184 4.968C6.184 4.46667 6.01333 4.07733 5.672 3.8C5.34133 3.512 4.87733 3.368 4.28 3.368H2.024V6.552ZM4.488 11.512C5.10667 11.512 5.592 11.3627 5.944 11.064C6.296 10.7653 6.472 10.3493 6.472 9.816C6.472 9.272 6.28533 8.84 5.912 8.52C5.53867 8.2 5.04267 8.04 4.424 8.04H2.024V11.512H4.488ZM12.1021 1.16V13H10.2781V1.16H12.1021ZM22.5769 8.376C22.5769 8.70667 22.5555 9.00533 22.5129 9.272H15.7769C15.8302 9.976 16.0915 10.5413 16.5609 10.968C17.0302 11.3947 17.6062 11.608 18.2889 11.608C19.2702 11.608 19.9635 11.1973 20.3689 10.376H22.3369C22.0702 11.1867 21.5849 11.8533 20.8809 12.376C20.1875 12.888 19.3235 13.144 18.2889 13.144C17.4462 13.144 16.6889 12.9573 16.0169 12.584C15.3555 12.2 14.8329 11.6667 14.4489 10.984C14.0755 10.2907 13.8889 9.49067 13.8889 8.584C13.8889 7.67733 14.0702 6.88267 14.4329 6.2C14.8062 5.50667 15.3235 4.97333 15.9849 4.6C16.6569 4.22667 17.4249 4.04 18.2889 4.04C19.1209 4.04 19.8622 4.22133 20.5129 4.584C21.1635 4.94667 21.6702 5.45867 22.0329 6.12C22.3955 6.77067 22.5769 7.52267 22.5769 8.376ZM20.6729 7.8C20.6622 7.128 20.4222 6.58933 19.9529 6.184C19.4835 5.77867 18.9022 5.576 18.2089 5.576C17.5795 5.576 17.0409 5.77867 16.5929 6.184C16.1449 6.57867 15.8782 7.11733 15.7929 7.8H20.6729ZM27.5719 13.144C26.8785 13.144 26.2545 13.0213 25.6999 12.776C25.1559 12.52 24.7239 12.1787 24.4039 11.752C24.0839 11.3147 23.9132 10.8293 23.8919 10.296H25.7799C25.8119 10.6693 25.9879 10.984 26.3079 11.24C26.6385 11.4853 27.0492 11.608 27.5399 11.608C28.0519 11.608 28.4465 11.512 28.7239 11.32C29.0119 11.1173 29.1559 10.8613 29.1559 10.552C29.1559 10.2213 28.9959 9.976 28.6759 9.816C28.3665 9.656 27.8705 9.48 27.1879 9.288C26.5265 9.10667 25.9879 8.93067 25.5719 8.76C25.1559 8.58933 24.7932 8.328 24.4839 7.976C24.1852 7.624 24.0359 7.16 24.0359 6.584C24.0359 6.11467 24.1745 5.688 24.4519 5.304C24.7292 4.90933 25.1239 4.6 25.6359 4.376C26.1585 4.152 26.7559 4.04 27.4279 4.04C28.4305 4.04 29.2359 4.296 29.8439 4.808C30.4625 5.30933 30.7932 5.99733 30.8359 6.872H29.0119C28.9799 6.47733 28.8199 6.16267 28.5319 5.928C28.2439 5.69333 27.8545 5.576 27.3639 5.576C26.8839 5.576 26.5159 5.66667 26.2599 5.848C26.0039 6.02933 25.8759 6.26933 25.8759 6.568C25.8759 6.80267 25.9612 7 26.1319 7.16C26.3025 7.32 26.5105 7.448 26.7559 7.544C27.0012 7.62933 27.3639 7.74133 27.8439 7.88C28.4839 8.05067 29.0065 8.22667 29.4119 8.408C29.8279 8.57867 30.1852 8.83467 30.4839 9.176C30.7825 9.51733 30.9372 9.97067 30.9479 10.536C30.9479 11.0373 30.8092 11.4853 30.5319 11.88C30.2545 12.2747 29.8599 12.584 29.3479 12.808C28.8465 13.032 28.2545 13.144 27.5719 13.144ZM36.1188 13.144C35.4254 13.144 34.8014 13.0213 34.2468 12.776C33.7028 12.52 33.2708 12.1787 32.9508 11.752C32.6308 11.3147 32.4601 10.8293 32.4388 10.296H34.3268C34.3588 10.6693 34.5348 10.984 34.8548 11.24C35.1854 11.4853 35.5961 11.608 36.0868 11.608C36.5988 11.608 36.9934 11.512 37.2708 11.32C37.5588 11.1173 37.7028 10.8613 37.7028 10.552C37.7028 10.2213 37.5428 9.976 37.2228 9.816C36.9134 9.656 36.4174 9.48 35.7348 9.288C35.0734 9.10667 34.5348 8.93067 34.1188 8.76C33.7028 8.58933 33.3401 8.328 33.0308 7.976C32.7321 7.624 32.5828 7.16 32.5828 6.584C32.5828 6.11467 32.7214 5.688 32.9988 5.304C33.2761 4.90933 33.6708 4.6 34.1828 4.376C34.7054 4.152 35.3028 4.04 35.9748 4.04C36.9774 4.04 37.7828 4.296 38.3908 4.808C39.0094 5.30933 39.3401 5.99733 39.3828 6.872H37.5588C37.5268 6.47733 37.3668 6.16267 37.0788 5.928C36.7908 5.69333 36.4014 5.576 35.9108 5.576C35.4308 5.576 35.0628 5.66667 34.8068 5.848C34.5508 6.02933 34.4228 6.26933 34.4228 6.568C34.4228 6.80267 34.5081 7 34.6788 7.16C34.8494 7.32 35.0574 7.448 35.3028 7.544C35.5481 7.62933 35.9108 7.74133 36.3908 7.88C37.0308 8.05067 37.5534 8.22667 37.9588 8.408C38.3748 8.57867 38.7321 8.83467 39.0308 9.176C39.3294 9.51733 39.4841 9.97067 39.4948 10.536C39.4948 11.0373 39.3561 11.4853 39.0788 11.88C38.8014 12.2747 38.4068 12.584 37.8948 12.808C37.3934 13.032 36.8014 13.144 36.1188 13.144ZM42.3936 3.016C42.063 3.016 41.7856 2.904 41.5616 2.68C41.3376 2.456 41.2256 2.17867 41.2256 1.848C41.2256 1.51733 41.3376 1.24 41.5616 1.016C41.7856 0.791999 42.063 0.679999 42.3936 0.679999C42.7136 0.679999 42.9856 0.791999 43.2096 1.016C43.4336 1.24 43.5456 1.51733 43.5456 1.848C43.5456 2.17867 43.4336 2.456 43.2096 2.68C42.9856 2.904 42.7136 3.016 42.3936 3.016ZM43.2896 4.184V13H41.4656V4.184H43.2896ZM50.1324 4.04C50.8257 4.04 51.4444 4.184 51.9884 4.472C52.543 4.76 52.975 5.18667 53.2844 5.752C53.5937 6.31733 53.7484 7 53.7484 7.8V13H51.9404V8.072C51.9404 7.28267 51.743 6.68 51.3484 6.264C50.9537 5.83733 50.415 5.624 49.7324 5.624C49.0497 5.624 48.5057 5.83733 48.1004 6.264C47.7057 6.68 47.5084 7.28267 47.5084 8.072V13H45.6844V4.184H47.5084V5.192C47.807 4.82933 48.1857 4.54667 48.6444 4.344C49.1137 4.14133 49.6097 4.04 50.1324 4.04ZM59.627 4.04C60.3097 4.04 60.9123 4.17867 61.435 4.456C61.9683 4.72267 62.3843 5.05867 62.683 5.464V4.184H64.523V13.144C64.523 13.9547 64.3523 14.6747 64.011 15.304C63.6697 15.944 63.1737 16.4453 62.523 16.808C61.883 17.1707 61.115 17.352 60.219 17.352C59.0243 17.352 58.0323 17.0693 57.243 16.504C56.4537 15.9493 56.0057 15.192 55.899 14.232H57.707C57.8457 14.6907 58.139 15.0587 58.587 15.336C59.0457 15.624 59.5897 15.768 60.219 15.768C60.955 15.768 61.547 15.544 61.995 15.096C62.4537 14.648 62.683 13.9973 62.683 13.144V11.672C62.3737 12.088 61.9523 12.44 61.419 12.728C60.8963 13.0053 60.299 13.144 59.627 13.144C58.859 13.144 58.155 12.952 57.515 12.568C56.8857 12.1733 56.3843 11.6293 56.011 10.936C55.6483 10.232 55.467 9.43733 55.467 8.552C55.467 7.66667 55.6483 6.88267 56.011 6.2C56.3843 5.51733 56.8857 4.98933 57.515 4.616C58.155 4.232 58.859 4.04 59.627 4.04ZM62.683 8.584C62.683 7.976 62.555 7.448 62.299 7C62.0537 6.552 61.7283 6.21067 61.323 5.976C60.9177 5.74133 60.4803 5.624 60.011 5.624C59.5417 5.624 59.1043 5.74133 58.699 5.976C58.2937 6.2 57.963 6.536 57.707 6.984C57.4617 7.42133 57.339 7.944 57.339 8.552C57.339 9.16 57.4617 9.69333 57.707 10.152C57.963 10.6107 58.2937 10.9627 58.699 11.208C59.115 11.4427 59.5523 11.56 60.011 11.56C60.4803 11.56 60.9177 11.4427 61.323 11.208C61.7283 10.9733 62.0537 10.632 62.299 10.184C62.555 9.72533 62.683 9.192 62.683 8.584ZM77.779 10.728H73.123L72.323 13H70.419L74.403 1.864H76.515L80.499 13H78.579L77.779 10.728ZM77.267 9.24L75.459 4.072L73.635 9.24H77.267ZM86.6793 4.04C87.3726 4.04 87.9913 4.184 88.5353 4.472C89.0899 4.76 89.5219 5.18667 89.8313 5.752C90.1406 6.31733 90.2953 7 90.2953 7.8V13H88.4873V8.072C88.4873 7.28267 88.2899 6.68 87.8953 6.264C87.5006 5.83733 86.9619 5.624 86.2793 5.624C85.5966 5.624 85.0526 5.83733 84.6473 6.264C84.2526 6.68 84.0553 7.28267 84.0553 8.072V13H82.2313V4.184H84.0553V5.192C84.3539 4.82933 84.7326 4.54667 85.1913 4.344C85.6606 4.14133 86.1566 4.04 86.6793 4.04ZM93.5499 3.016C93.2192 3.016 92.9419 2.904 92.7179 2.68C92.4939 2.456 92.3819 2.17867 92.3819 1.848C92.3819 1.51733 92.4939 1.24 92.7179 1.016C92.9419 0.791999 93.2192 0.679999 93.5499 0.679999C93.8699 0.679999 94.1419 0.791999 94.3659 1.016C94.5899 1.24 94.7019 1.51733 94.7019 1.848C94.7019 2.17867 94.5899 2.456 94.3659 2.68C94.1419 2.904 93.8699 3.016 93.5499 3.016ZM94.4459 4.184V13H92.6219V4.184H94.4459ZM104.921 8.376C104.921 8.70667 104.899 9.00533 104.857 9.272H98.1206C98.174 9.976 98.4353 10.5413 98.9046 10.968C99.374 11.3947 99.95 11.608 100.633 11.608C101.614 11.608 102.307 11.1973 102.713 10.376H104.681C104.414 11.1867 103.929 11.8533 103.225 12.376C102.531 12.888 101.667 13.144 100.633 13.144C99.79 13.144 99.0326 12.9573 98.3606 12.584C97.6993 12.2 97.1766 11.6667 96.7926 10.984C96.4193 10.2907 96.2326 9.49067 96.2326 8.584C96.2326 7.67733 96.414 6.88267 96.7766 6.2C97.15 5.50667 97.6673 4.97333 98.3286 4.6C99.0006 4.22667 99.7686 4.04 100.633 4.04C101.465 4.04 102.206 4.22133 102.857 4.584C103.507 4.94667 104.014 5.45867 104.377 6.12C104.739 6.77067 104.921 7.52267 104.921 8.376ZM103.017 7.8C103.006 7.128 102.766 6.58933 102.297 6.184C101.827 5.77867 101.246 5.576 100.553 5.576C99.9233 5.576 99.3846 5.77867 98.9366 6.184C98.4886 6.57867 98.222 7.11733 98.1366 7.8H103.017ZM106.108 8.552C106.108 7.66667 106.289 6.88267 106.652 6.2C107.025 5.51733 107.526 4.98933 108.156 4.616C108.796 4.232 109.505 4.04 110.284 4.04C110.86 4.04 111.425 4.168 111.98 4.424C112.545 4.66933 112.993 5 113.324 5.416V1.16H115.164V13H113.324V11.672C113.025 12.0987 112.609 12.4507 112.076 12.728C111.553 13.0053 110.95 13.144 110.268 13.144C109.5 13.144 108.796 12.952 108.156 12.568C107.526 12.1733 107.025 11.6293 106.652 10.936C106.289 10.232 106.108 9.43733 106.108 8.552ZM113.324 8.584C113.324 7.976 113.196 7.448 112.94 7C112.694 6.552 112.369 6.21067 111.964 5.976C111.558 5.74133 111.121 5.624 110.652 5.624C110.182 5.624 109.745 5.74133 109.34 5.976C108.934 6.2 108.604 6.536 108.348 6.984C108.102 7.42133 107.98 7.944 107.98 8.552C107.98 9.16 108.102 9.69333 108.348 10.152C108.604 10.6107 108.934 10.9627 109.34 11.208C109.756 11.4427 110.193 11.56 110.652 11.56C111.121 11.56 111.558 11.4427 111.964 11.208C112.369 10.9733 112.694 10.632 112.94 10.184C113.196 9.72533 113.324 9.192 113.324 8.584ZM118.487 3.016C118.157 3.016 117.879 2.904 117.655 2.68C117.431 2.456 117.319 2.17867 117.319 1.848C117.319 1.51733 117.431 1.24 117.655 1.016C117.879 0.791999 118.157 0.679999 118.487 0.679999C118.807 0.679999 119.079 0.791999 119.303 1.016C119.527 1.24 119.639 1.51733 119.639 1.848C119.639 2.17867 119.527 2.456 119.303 2.68C119.079 2.904 118.807 3.016 118.487 3.016ZM119.383 4.184V13H117.559V4.184H119.383Z" fill="#333333"/>
</svg>
